<svg width="335" height="77" viewBox="0 0 335 77" fill="none" xmlns="http://www.w3.org/2000/svg">
<path d="M69.8437 70.2385C69.2413 70.2385 68.6717 70.1837 68.1349 70.0741C67.6091 69.9646 67.1217 69.8112 66.6726 69.6141C66.2344 69.406 65.8346 69.154 65.4731 68.8583L65.9496 67.7738C66.322 68.0477 66.6999 68.2832 67.0833 68.4803C67.4777 68.6666 67.8994 68.809 68.3485 68.9075C68.8086 68.9952 69.307 69.039 69.8437 69.039C70.8296 69.039 71.558 68.8583 72.0291 68.4968C72.511 68.1243 72.752 67.6369 72.752 67.0344C72.752 66.7167 72.6753 66.4429 72.522 66.2129C72.3796 65.9828 72.1386 65.7857 71.799 65.6213C71.4704 65.457 71.0377 65.3201 70.501 65.2106L68.7921 64.8655C67.7625 64.6464 66.9902 64.2904 66.4754 63.7975C65.9715 63.2936 65.7196 62.6254 65.7196 61.7929C65.7196 61.1028 65.8948 60.5004 66.2453 59.9855C66.6068 59.4707 67.1052 59.0709 67.7406 58.786C68.3869 58.5012 69.1208 58.3588 69.9423 58.3588C70.4681 58.3588 70.9665 58.4136 71.4375 58.5232C71.9086 58.6327 72.3412 58.797 72.7356 59.0161C73.1409 59.2242 73.4969 59.4816 73.8036 59.7883L73.3271 60.8399C72.8342 60.3908 72.3139 60.0677 71.7662 59.8705C71.2185 59.6624 70.605 59.5583 69.9259 59.5583C69.3453 59.5583 68.8414 59.6459 68.4142 59.8212C67.998 59.9965 67.6694 60.2539 67.4284 60.5935C67.1983 60.9221 67.0833 61.3055 67.0833 61.7436C67.0833 62.2694 67.2422 62.6857 67.5598 62.9924C67.8884 63.2991 68.4197 63.5237 69.1536 63.6661L70.8625 64.0275C71.9688 64.2576 72.7849 64.6081 73.3107 65.0791C73.8474 65.5392 74.1158 66.169 74.1158 66.9687C74.1158 67.604 73.9405 68.1736 73.59 68.6775C73.2504 69.1704 72.7575 69.5538 72.1112 69.8277C71.4759 70.1015 70.7201 70.2385 69.8437 70.2385ZM81.7929 70.0906V58.5067H89.1047V59.6405H83.1074V63.6496H88.7597V64.7834H83.1074V68.9568H89.1047V70.0906H81.7929ZM96.9589 70.0906V58.5067H101.543C102.781 58.5067 103.734 58.797 104.402 59.3776C105.07 59.9581 105.404 60.7852 105.404 61.8586C105.404 62.5378 105.251 63.1293 104.944 63.6332C104.649 64.1261 104.21 64.504 103.63 64.7669C103.049 65.0189 102.354 65.1448 101.543 65.1448L101.707 64.9312H102.036C102.463 64.9312 102.836 65.0408 103.153 65.2599C103.471 65.4789 103.761 65.8295 104.024 66.3114L106.062 70.0906H104.583L102.578 66.3772C102.414 66.0705 102.228 65.8295 102.02 65.6542C101.822 65.4789 101.592 65.3584 101.33 65.2927C101.078 65.227 100.771 65.1941 100.409 65.1941H98.3062V70.0906H96.9589ZM98.3062 64.1261H101.346C102.244 64.1261 102.923 63.9399 103.383 63.5675C103.843 63.1841 104.073 62.6145 104.073 61.8586C104.073 61.1247 103.843 60.5716 103.383 60.1991C102.923 59.8157 102.244 59.624 101.346 59.624H98.3062V64.1261ZM116.975 70.0906L111.914 58.5067H113.36L117.879 69.0061H117.353L121.855 58.5067H123.268L118.191 70.0906H116.975ZM130.275 70.0906V58.5067H131.623V70.0906H130.275ZM145.077 70.2385C143.938 70.2385 142.963 69.9975 142.153 69.5155C141.342 69.0335 140.718 68.3489 140.279 67.4616C139.852 66.5743 139.639 65.5173 139.639 64.2904C139.639 63.0636 139.852 62.012 140.279 61.1357C140.718 60.2484 141.342 59.5638 142.153 59.0818C142.963 58.5998 143.938 58.3588 145.077 58.3588C145.877 58.3588 146.616 58.4848 147.295 58.7368C147.975 58.9887 148.544 59.3557 149.004 59.8376L148.479 60.9385C147.975 60.4675 147.449 60.1279 146.901 59.9198C146.364 59.7007 145.767 59.5912 145.11 59.5912C143.807 59.5912 142.81 60.0019 142.12 60.8235C141.43 61.645 141.085 62.8007 141.085 64.2904C141.085 65.7802 141.43 66.9413 142.12 67.7738C142.81 68.5954 143.807 69.0061 145.11 69.0061C145.767 69.0061 146.364 68.9021 146.901 68.6939C147.449 68.4749 147.975 68.1298 148.479 67.6588L149.004 68.7597C148.544 69.2307 147.975 69.5976 147.295 69.8605C146.616 70.1125 145.877 70.2385 145.077 70.2385ZM145.012 73.2453C144.727 73.2453 144.453 73.2179 144.19 73.1632C143.938 73.1084 143.724 73.0317 143.549 72.9331L143.763 72.2102C143.971 72.2978 144.163 72.3635 144.338 72.4073C144.513 72.4512 144.727 72.4731 144.979 72.4731C145.264 72.4731 145.494 72.4183 145.669 72.3088C145.844 72.2102 145.932 72.0623 145.932 71.8651C145.932 71.7227 145.882 71.6077 145.784 71.5201C145.685 71.4434 145.526 71.4051 145.307 71.4051C145.187 71.4051 145.072 71.4105 144.962 71.4215C144.853 71.4434 144.71 71.4872 144.535 71.5529L144.272 71.29L144.502 69.762H145.34L145.127 70.9943L144.732 70.8957C144.864 70.8628 144.99 70.8354 145.11 70.8135C145.242 70.7916 145.362 70.7807 145.472 70.7807C145.745 70.7807 145.981 70.8245 146.178 70.9121C146.386 70.9998 146.551 71.1257 146.671 71.29C146.792 71.4543 146.852 71.657 146.852 71.898C146.852 72.1609 146.775 72.3964 146.622 72.6045C146.468 72.8126 146.255 72.9715 145.981 73.081C145.707 73.1906 145.384 73.2453 145.012 73.2453ZM161.235 70.2385C160.435 70.2385 159.707 70.1015 159.049 69.8277C158.392 69.5429 157.833 69.1431 157.373 68.6282C156.913 68.1134 156.557 67.489 156.305 66.7551C156.064 66.0212 155.944 65.1996 155.944 64.2904C155.944 63.3703 156.064 62.5487 156.305 61.8258C156.557 61.0919 156.913 60.473 157.373 59.9691C157.833 59.4542 158.387 59.0599 159.033 58.786C159.69 58.5012 160.424 58.3588 161.235 58.3588C162.056 58.3588 162.79 58.4958 163.436 58.7696C164.094 59.0435 164.652 59.4378 165.112 59.9526C165.583 60.4675 165.939 61.0919 166.18 61.8258C166.432 62.5487 166.558 63.3648 166.558 64.274C166.558 65.1941 166.432 66.0212 166.18 66.7551C165.928 67.489 165.572 68.1134 165.112 68.6282C164.652 69.1431 164.094 69.5429 163.436 69.8277C162.79 70.1015 162.056 70.2385 161.235 70.2385ZM161.235 69.039C162.067 69.039 162.768 68.8528 163.338 68.4803C163.918 68.1079 164.362 67.5657 164.669 66.8537C164.975 66.1417 165.129 65.2872 165.129 64.2904C165.129 63.2827 164.975 62.4283 164.669 61.7272C164.362 61.0261 163.918 60.4894 163.338 60.117C162.768 59.7445 162.067 59.5583 161.235 59.5583C160.424 59.5583 159.728 59.7445 159.148 60.117C158.578 60.4894 158.14 61.0316 157.833 61.7436C157.527 62.4447 157.373 63.2936 157.373 64.2904C157.373 65.2872 157.527 66.1417 157.833 66.8537C158.14 67.5547 158.578 68.0969 159.148 68.4803C159.728 68.8528 160.424 69.039 161.235 69.039ZM178.3 70.2385C177.697 70.2385 177.128 70.1837 176.591 70.0741C176.065 69.9646 175.578 69.8112 175.129 69.6141C174.691 69.406 174.291 69.154 173.929 68.8583L174.406 67.7738C174.778 68.0477 175.156 68.2832 175.539 68.4803C175.934 68.6666 176.356 68.809 176.805 68.9075C177.265 68.9952 177.763 69.039 178.3 69.039C179.286 69.039 180.014 68.8583 180.485 68.4968C180.967 68.1243 181.208 67.6369 181.208 67.0344C181.208 66.7167 181.131 66.4429 180.978 66.2129C180.836 65.9828 180.595 65.7857 180.255 65.6213C179.927 65.457 179.494 65.3201 178.957 65.2106L177.248 64.8655C176.219 64.6464 175.446 64.2904 174.932 63.7975C174.428 63.2936 174.176 62.6254 174.176 61.7929C174.176 61.1028 174.351 60.5004 174.701 59.9855C175.063 59.4707 175.561 59.0709 176.197 58.786C176.843 58.5012 177.577 58.3588 178.398 58.3588C178.924 58.3588 179.423 58.4136 179.894 58.5232C180.365 58.6327 180.797 58.797 181.192 59.0161C181.597 59.2242 181.953 59.4816 182.26 59.7883L181.783 60.8399C181.29 60.3908 180.77 60.0677 180.222 59.8705C179.675 59.6624 179.061 59.5583 178.382 59.5583C177.801 59.5583 177.298 59.6459 176.87 59.8212C176.454 59.9965 176.126 60.2539 175.885 60.5935C175.654 60.9221 175.539 61.3055 175.539 61.7436C175.539 62.2694 175.698 62.6857 176.016 62.9924C176.345 63.2991 176.876 63.5237 177.61 63.6661L179.319 64.0275C180.425 64.2576 181.241 64.6081 181.767 65.0791C182.304 65.5392 182.572 66.169 182.572 66.9687C182.572 67.604 182.397 68.1736 182.046 68.6775C181.707 69.1704 181.214 69.5538 180.567 69.8277C179.932 70.1015 179.176 70.2385 178.3 70.2385ZM205.067 70.2385C203.928 70.2385 202.953 69.9975 202.142 69.5155C201.332 69.0335 200.707 68.3489 200.269 67.4616C199.842 66.5743 199.628 65.5173 199.628 64.2904C199.628 63.0636 199.842 62.012 200.269 61.1357C200.707 60.2484 201.332 59.5638 202.142 59.0818C202.953 58.5998 203.928 58.3588 205.067 58.3588C205.867 58.3588 206.606 58.4848 207.285 58.7368C207.964 58.9887 208.534 59.3557 208.994 59.8376L208.468 60.9385C207.964 60.4675 207.439 60.1279 206.891 59.9198C206.354 59.7007 205.757 59.5912 205.1 59.5912C203.796 59.5912 202.8 60.0019 202.11 60.8235C201.419 61.645 201.074 62.8007 201.074 64.2904C201.074 65.7802 201.419 66.9413 202.11 67.7738C202.8 68.5954 203.796 69.0061 205.1 69.0061C205.757 69.0061 206.354 68.9021 206.891 68.6939C207.439 68.4749 207.964 68.1298 208.468 67.6588L208.994 68.7597C208.534 69.2307 207.964 69.5976 207.285 69.8605C206.606 70.1125 205.867 70.2385 205.067 70.2385ZM221.224 70.2385C220.425 70.2385 219.696 70.1015 219.039 69.8277C218.382 69.5429 217.823 69.1431 217.363 68.6282C216.903 68.1134 216.547 67.489 216.295 66.7551C216.054 66.0212 215.934 65.1996 215.934 64.2904C215.934 63.3703 216.054 62.5487 216.295 61.8258C216.547 61.0919 216.903 60.473 217.363 59.9691C217.823 59.4542 218.376 59.0599 219.023 58.786C219.68 58.5012 220.414 58.3588 221.224 58.3588C222.046 58.3588 222.78 58.4958 223.426 58.7696C224.083 59.0435 224.642 59.4378 225.102 59.9526C225.573 60.4675 225.929 61.0919 226.17 61.8258C226.422 62.5487 226.548 63.3648 226.548 64.274C226.548 65.1941 226.422 66.0212 226.17 66.7551C225.918 67.489 225.562 68.1134 225.102 68.6282C224.642 69.1431 224.083 69.5429 223.426 69.8277C222.78 70.1015 222.046 70.2385 221.224 70.2385ZM221.224 69.039C222.057 69.039 222.758 68.8528 223.328 68.4803C223.908 68.1079 224.352 67.5657 224.659 66.8537C224.965 66.1417 225.119 65.2872 225.119 64.2904C225.119 63.2827 224.965 62.4283 224.659 61.7272C224.352 61.0261 223.908 60.4894 223.328 60.117C222.758 59.7445 222.057 59.5583 221.224 59.5583C220.414 59.5583 219.718 59.7445 219.138 60.117C218.568 60.4894 218.13 61.0316 217.823 61.7436C217.517 62.4447 217.363 63.2936 217.363 64.2904C217.363 65.2872 217.517 66.1417 217.823 66.8537C218.13 67.5547 218.568 68.0969 219.138 68.4803C219.718 68.8528 220.414 69.039 221.224 69.039ZM234.543 70.0906V58.5067H235.595L242.973 68.3489H242.578V58.5067H243.827V70.0906H242.808L235.431 60.2484H235.809V70.0906H234.543ZM255.135 70.0906V59.6733H250.929V58.5067H260.705V59.6733H256.499V70.0906H255.135ZM265.395 70.0906L270.505 58.5067H271.655L276.765 70.0906H275.368L273.939 66.7879L274.596 67.133H267.531L268.204 66.7879L266.791 70.0906H265.395ZM271.063 60.0841L268.418 66.3114L268.024 65.9993H274.103L273.742 66.3114L271.096 60.0841H271.063ZM270.587 57.5209L272.526 54.6947H274.021L271.606 57.5209H270.587ZM284.069 70.0906V58.5067H288.702C289.885 58.5067 290.805 58.7696 291.463 59.2954C292.12 59.8212 292.449 60.5661 292.449 61.53C292.449 62.253 292.235 62.8555 291.808 63.3374C291.392 63.8194 290.822 64.1371 290.099 64.2904V64.0604C290.647 64.1261 291.118 64.285 291.512 64.5369C291.906 64.7779 292.208 65.101 292.416 65.5063C292.624 65.9007 292.728 66.3662 292.728 66.903C292.728 67.5931 292.575 68.1791 292.268 68.6611C291.972 69.1321 291.539 69.4881 290.97 69.7291C290.4 69.9701 289.71 70.0906 288.899 70.0906H284.069ZM285.383 69.0061H288.768C289.119 69.0061 289.431 68.9787 289.705 68.924C289.989 68.8692 290.236 68.7871 290.444 68.6775C290.652 68.557 290.827 68.4146 290.97 68.2503C291.112 68.086 291.216 67.8888 291.282 67.6588C291.359 67.4288 291.397 67.1713 291.397 66.8865C291.397 66.5908 291.359 66.3334 291.282 66.1143C291.216 65.8842 291.112 65.6871 290.97 65.5228C290.827 65.3475 290.652 65.2051 290.444 65.0956C290.236 64.986 289.989 64.9039 289.705 64.8491C289.431 64.7943 289.119 64.7669 288.768 64.7669H285.383V69.0061ZM285.383 63.6825H288.505C289.36 63.6825 290.006 63.5072 290.444 63.1567C290.893 62.8062 291.118 62.3023 291.118 61.645C291.118 60.9659 290.893 60.4565 290.444 60.117C290.006 59.7664 289.36 59.5912 288.505 59.5912H285.383V63.6825ZM300.759 70.0906V58.5067H308.071V59.6405H302.074V63.6496H307.726V64.7834H302.074V68.9568H308.071V70.0906H300.759ZM315.925 70.0906V58.5067H317.272V70.0906H315.925ZM329.462 70.2385C328.859 70.2385 328.29 70.1837 327.753 70.0741C327.227 69.9646 326.74 69.8112 326.291 69.6141C325.852 69.406 325.453 69.154 325.091 68.8583L325.568 67.7738C325.94 68.0477 326.318 68.2832 326.701 68.4803C327.096 68.6666 327.518 68.809 327.967 68.9075C328.427 68.9952 328.925 69.039 329.462 69.039C330.448 69.039 331.176 68.8583 331.647 68.4968C332.129 68.1243 332.37 67.6369 332.37 67.0344C332.37 66.7167 332.293 66.4429 332.14 66.2129C331.998 65.9828 331.757 65.7857 331.417 65.6213C331.089 65.457 330.656 65.3201 330.119 65.2106L328.41 64.8655C327.381 64.6464 326.608 64.2904 326.093 63.7975C325.59 63.2936 325.338 62.6254 325.338 61.7929C325.338 61.1028 325.513 60.5004 325.863 59.9855C326.225 59.4707 326.723 59.0709 327.359 58.786C328.005 58.5012 328.739 58.3588 329.56 58.3588C330.086 58.3588 330.585 58.4136 331.056 58.5232C331.527 58.6327 331.959 58.797 332.354 59.0161C332.759 59.2242 333.115 59.4816 333.422 59.7883L332.945 60.8399C332.452 60.3908 331.932 60.0677 331.384 59.8705C330.837 59.6624 330.223 59.5583 329.544 59.5583C328.963 59.5583 328.46 59.6459 328.032 59.8212C327.616 59.9965 327.287 60.2539 327.046 60.5935C326.816 60.9221 326.701 61.3055 326.701 61.7436C326.701 62.2694 326.86 62.6857 327.178 62.9924C327.507 63.2991 328.038 63.5237 328.772 63.6661L330.481 64.0275C331.587 64.2576 332.403 64.6081 332.929 65.0791C333.466 65.5392 333.734 66.169 333.734 66.9687C333.734 67.604 333.559 68.1736 333.208 68.6775C332.869 69.1704 332.376 69.5538 331.729 69.8277C331.094 70.1015 330.338 70.2385 329.462 70.2385Z" fill="white"/>
<path d="M327.221 51.2805V0.143799H335V51.2805H327.221Z" fill="white"/>
<path d="M315.321 10.6595C312.296 10.6595 310.063 8.35473 310.063 5.32974C310.063 2.30475 312.296 0 315.321 0C318.346 0 320.578 2.30475 320.578 5.32974C320.578 8.35473 318.346 10.6595 315.321 10.6595ZM311.359 51.2808V15.7011H319.138V51.2808H311.359Z" fill="white"/>
<path d="M286.699 52.2168C275.607 52.2168 267.756 44.7264 267.756 33.2026V0.143799H275.535V21.3908C278.056 17.1414 282.665 14.7646 288.067 14.7646C296.998 14.7646 305.929 21.1747 305.929 33.2026C305.929 44.4383 298.006 52.2168 286.699 52.2168ZM286.771 45.0145C293.541 45.0145 298.078 40.1889 298.078 33.4907C298.078 26.7925 293.541 21.9669 286.771 21.9669C280.072 21.9669 275.535 26.7925 275.535 33.4907C275.535 40.1889 280.072 45.0145 286.771 45.0145Z" fill="white"/>
<path d="M241.799 52.2167C232.868 52.2167 223.938 45.8066 223.938 33.8507C223.938 22.543 231.86 14.7644 243.168 14.7644C254.331 14.7644 262.11 22.3269 262.11 33.7786V51.2804H254.98V43.934C252.747 49.4077 247.705 52.2167 241.799 52.2167ZM243.096 45.0143C249.866 45.0143 254.331 40.1887 254.331 33.4905C254.331 26.7923 249.866 21.9668 243.096 21.9668C236.326 21.9668 231.788 26.7923 231.788 33.4905C231.788 40.1887 236.326 45.0143 243.096 45.0143Z" fill="white"/>
<path d="M177.473 51.2809V4.17749H185.828V23.4798H210.1V4.17749H218.455V51.2809H210.1V31.1863H185.828V51.2809H177.473Z" fill="white"/>
<path d="M152.852 52.2167C141.616 52.2167 133.694 44.2941 133.694 33.4905C133.694 22.687 141.616 14.7644 152.852 14.7644C164.088 14.7644 172.01 22.687 172.01 33.4905C172.01 44.2941 164.088 52.2167 152.852 52.2167ZM152.852 49.1197C162.287 49.1197 168.625 42.4935 168.625 33.4905C168.625 24.4876 162.287 17.8614 152.852 17.8614C143.417 17.8614 137.079 24.4876 137.079 33.4905C137.079 42.4935 143.417 49.1197 152.852 49.1197Z" fill="white"/>
<path d="M107.482 51.2804V29.6733C107.482 20.905 112.068 16.0594 119.062 14.9913C120.053 14.8399 121.093 14.7644 122.175 14.7644H132.109V14.9913V17.8614H125.288H122.175C115.333 17.8614 110.796 21.6066 110.796 29.6733V51.2804H107.482Z" fill="white"/>
<path d="M67.1738 51.2809V4.17749H88.0607C99.0803 4.17749 103.906 10.3715 103.906 18.7263C103.906 27.081 99.0082 33.4191 88.0607 33.4191H70.703V51.2809H67.1738ZM70.703 30.178H88.0607C96.9916 30.178 100.305 25.2084 100.305 18.7263C100.305 12.3162 96.9916 7.41855 88.0607 7.41855H70.703V30.178Z" fill="white"/>
<path d="M0 7.30835C0.000225969 3.94044 4.19612 2.39673 6.37891 4.96167L13.6787 13.5388V41.6707L6.37891 50.2498C4.19615 52.8147 0.000338696 51.2709 0 47.9031V7.30835ZM13.6787 7.30835C13.6789 3.94049 17.8748 2.39687 20.0576 4.96167L27.3584 13.5408V41.6697L20.0576 50.2498C17.8748 52.8144 13.679 51.2708 13.6787 47.9031V41.6707L23.6514 29.9519C24.8023 28.5992 24.8025 26.6112 23.6514 25.2585L13.6787 13.5388V7.30835ZM27.3584 7.30835C27.3586 3.94044 31.5545 2.39673 33.7373 4.96167L51.0098 25.2585C52.1609 26.6112 52.1607 28.5992 51.0098 29.9519L33.7373 50.2498C31.5545 52.8146 27.3587 51.2709 27.3584 47.9031V41.6697L37.3301 29.9519C38.4812 28.5992 38.4812 26.6112 37.3301 25.2585L27.3584 13.5408V7.30835Z" fill="white"/>
</svg>
