<svg width="175" height="28" viewBox="0 0 175 28" fill="none" xmlns="http://www.w3.org/2000/svg">
<path d="M170.937 26.7884V0.0751953H175V26.7884H170.937Z" fill="white"/>
<path d="M164.72 5.56839C163.14 5.56839 161.973 4.36441 161.973 2.78419C161.973 1.20398 163.14 0 164.72 0C166.3 0 167.466 1.20398 167.466 2.78419C167.466 4.36441 166.3 5.56839 164.72 5.56839ZM162.65 26.7885V8.20208H166.714V26.7885H162.65Z" fill="white"/>
<path d="M149.768 27.2775C143.974 27.2775 139.873 23.3646 139.873 17.3447V0.0751953H143.936V11.1743C145.253 8.95452 147.661 7.71292 150.483 7.71292C155.148 7.71292 159.814 11.0615 159.814 17.3447C159.814 23.2141 155.675 27.2775 149.768 27.2775ZM149.806 23.5151C153.343 23.5151 155.713 20.9943 155.713 17.4952C155.713 13.9962 153.343 11.4753 149.806 11.4753C146.307 11.4753 143.936 13.9962 143.936 17.4952C143.936 20.9943 146.307 23.5151 149.806 23.5151Z" fill="white"/>
<path d="M126.313 27.2775C121.648 27.2775 116.982 23.9289 116.982 17.6833C116.982 11.7763 121.121 7.71289 127.028 7.71289C132.86 7.71289 136.923 11.6634 136.923 17.6457V26.7884H133.198V22.9507C132.032 25.8102 129.398 27.2775 126.313 27.2775ZM126.99 23.5151C130.527 23.5151 132.86 20.9943 132.86 17.4952C132.86 13.9961 130.527 11.4753 126.99 11.4753C123.454 11.4753 121.083 13.9961 121.083 17.4952C121.083 20.9943 123.454 23.5151 126.99 23.5151Z" fill="white"/>
<path d="M92.71 26.7889V2.18262H97.0744V12.2659H109.754V2.18262H114.118V26.7889H109.754V16.2917H97.0744V26.7889H92.71Z" fill="white"/>
<path d="M79.8484 27.2775C73.979 27.2775 69.8403 23.1388 69.8403 17.4952C69.8403 11.8516 73.979 7.71289 79.8484 7.71289C85.7178 7.71289 89.8564 11.8516 89.8564 17.4952C89.8564 23.1388 85.7178 27.2775 79.8484 27.2775ZM79.8484 25.6597C84.7772 25.6597 88.0881 22.1982 88.0881 17.4952C88.0881 12.7922 84.7772 9.33073 79.8484 9.33073C74.9196 9.33073 71.6087 12.7922 71.6087 17.4952C71.6087 22.1982 74.9196 25.6597 79.8484 25.6597Z" fill="white"/>
<path d="M56.1475 26.7884V15.5011C56.1475 10.9207 58.543 8.38937 62.1965 7.83142C62.7144 7.75233 63.2576 7.71289 63.8228 7.71289H69.0119V7.83142V9.33073H65.4491H63.8228C60.2485 9.33073 57.8782 11.2872 57.8782 15.5011V26.7884H56.1475Z" fill="white"/>
<path d="M35.0908 26.7889V2.18262H46.0019C51.7584 2.18262 54.2792 5.4183 54.2792 9.78272C54.2792 14.1471 51.7207 17.4581 46.0019 17.4581H36.9344V26.7889H35.0908ZM36.9344 15.765H46.0019C50.6673 15.765 52.398 13.1689 52.398 9.78272C52.398 6.43416 50.6673 3.87571 46.0019 3.87571H36.9344V15.765Z" fill="white"/>
<path fill-rule="evenodd" clip-rule="evenodd" d="M0 3.81893C7.69081e-08 2.05948 2.19174 1.25342 3.33203 2.59335L7.14648 7.07479V21.7682L3.33203 26.2506C2.19179 27.5902 0.00031055 26.7841 0 25.025V3.81893ZM7.14648 3.81893C7.14648 2.05948 9.33823 1.25342 10.4785 2.59335L14.292 7.07382V21.7691L10.4785 26.2506C9.33831 27.5904 7.14679 26.7842 7.14648 25.025V21.7682L12.3555 15.648C12.9568 14.9414 12.9567 13.9025 12.3555 13.1959L7.14648 7.07479V3.81893ZM14.292 3.81893C14.292 2.05948 16.4837 1.25342 17.624 2.59335L26.6475 13.1959C27.2487 13.9025 27.2488 14.9415 26.6475 15.648L17.624 26.2506C16.4838 27.5904 14.2923 26.7842 14.292 25.025V21.7691L19.501 15.648C20.1023 14.9414 20.1023 13.9025 19.501 13.1959L14.292 7.07382V3.81893Z" fill="white"/>
</svg>
